<?xml version="1.0" encoding="UTF-8"?>
<!DOCTYPE svg PUBLIC "-//W3C//DTD SVG 1.1//EN" "http://www.w3.org/Graphics/SVG/1.1/DTD/svg11.dtd">
<!-- Creator: CorelDRAW X7 -->
<svg xmlns="http://www.w3.org/2000/svg" xml:space="preserve" width="111.8mm" height="42.33mm" version="1.1" style="shape-rendering:geometricPrecision; text-rendering:geometricPrecision; image-rendering:optimizeQuality; fill-rule:evenodd; clip-rule:evenodd"
viewBox="0 0 10936 4141"
 xmlns:xlink="http://www.w3.org/1999/xlink">
 <defs>
  <style type="text/css">
   <![CDATA[
    .str0 {stroke:#2B2A29;stroke-width:41.4055}
    .fil0 {fill:none}
    .fil1 {fill:#1C1B17}
   ]]>
  </style>
 </defs>
 <g id="Layer_x0020_1">
  <metadata id="CorelCorpID_0Corel-Layer"/>
  <rect class="fil0" width="10936" height="4141"/>
  <path class="fil1 str0" d="M1981 2226c-33,515 -402,743 -871,739 -500,-5 -811,-347 -811,-891 0,-554 311,-894 809,-894 390,0 684,155 780,541l28 0 -70 -444c-194,-118 -474,-191 -737,-191 -637,0 -1038,376 -1038,988 0,609 401,985 1038,988 372,0 704,-154 867,-406l33 -431 -28 1zm1038 792l-1 -31 -42 0c-115,0 -210,-75 -213,-168l0 -1492c5,-92 99,-165 213,-165l43 0 0 -32 -713 0 0 32 42 0c117,0 212,76 214,170l0 1484c-2,95 -97,171 -214,171l-42 0 0 31 713 0zm1918 -1888l0 32 52 0c93,0 170,69 175,157l0 1305 -1632 -1539 -34 -2c0,0 30,179 30,393l0 1346c-2,91 -80,165 -175,165l-52 0 -1 31 595 0 0 -31 -53 0c-96,0 -173,-74 -175,-165l0 -1312 1636 1552 30 0c0,0 -30,-199 -30,-401l0 -1342c6,-87 82,-157 175,-157l53 0 0 -32 -594 0zm2505 1439c-88,205 -196,350 -498,355l-864 0 1196 -1810 0 -28c-40,20 -221,41 -356,41l-724 0c-124,-2 -295,-27 -350,-48l0 79 0 57 0 217 34 0 0 -48c0,-88 60,-159 154,-162l937 0 -1172 1767 -1 29 1508 0 170 -449 -34 0zm1736 -2l-34 0c-89,204 -197,351 -499,355l-492 0 0 -801 545 0c82,5 120,63 120,134l0 40 34 0 0 -442 -34 0 0 40c0,73 -41,132 -128,134l-537 0 0 -800 652 0c96,1 158,73 158,161l0 49 34 0 0 -356c-55,22 -225,48 -351,49l-920 0 1 32 44 0c102,0 181,71 181,165l0 1493c-4,93 -80,167 -181,167l-44 0 -1 31 1279 0 173 -451zm1653 0c-90,203 -198,351 -500,355l-492 0 0 -1590c2,-94 85,-170 188,-170l37 0 0 -32 -651 0 0 32 37 0c103,0 186,76 188,170l0 1488c-3,93 -80,167 -181,167l-43 0 -1 31 1278 0 174 -451 -34 0z"/>
 </g>
</svg>
